{
  "accessors": [
    {
      "bufferView": 2,
      "componentType": 5126,
      "count": 204,
      "max": [
        0.11937099695205688,
        -0.1781110018491745,
        2.4865241050720215
      ],
      "min": [
        -0.11937399953603745,
        -0.5125929713249207,
        2.0975780487060547
      ],
      "type": "VEC3"
    },
    {
      "bufferView": 2,
      "byteOffset": 2448,
      "componentType": 5126,
      "count": 204,
      "max": [
        0.9988755583763123,
        0.9986627697944641,
        0.9999935626983643
      ],
      "min": [
        -0.9988755583763123,
        -0.9834447503089905,
        -0.9967221021652222
      ],
      "type": "VEC3"
    },
    {
      "bufferView": 1,
      "componentType": 5126,
      "count": 204,
      "max": [
        0.9999150037765503,
        0.7250530123710632
      ],
      "min": [
        8.499999967170879e-05,
        8.499999967170879e-05
      ],
      "type": "VEC2"
    },
    {
      "bufferView": 0,
      "componentType": 5125,
      "count": 1026,
      "type": "SCALAR"
    },
    {
      "bufferView": 2,
      "byteOffset": 4896,
      "componentType": 5126,
      "count": 3416,
      "max": [
        1.1968460083007813,
        0.45002299547195435,
        2.57578706741333
      ],
      "min": [
        -1.133566975593567,
        -0.5724800229072571,
        -0.306208997964859
      ],
      "type": "VEC3"
    },
    {
      "bufferView": 2,
      "byteOffset": 45888,
      "componentType": 5126,
      "count": 3416,
      "max": [
        1.0,
        0.9997333884239197,
        0.9982281923294067
      ],
      "min": [
        -1.0,
        -0.9999634027481079,
        -0.9985994100570679
      ],
      "type": "VEC3"
    },
    {
      "bufferView": 3,
      "componentType": 5126,
      "count": 3416,
      "max": [
        0.9997110962867737,
        1.0,
        0.9995712041854858,
        1.0
      ],
      "min": [
        -0.9989519119262695,
        -1.0,
        -0.9996951818466187,
        -1.0
      ],
      "type": "VEC4"
    },
    {
      "bufferView": 1,
      "byteOffset": 1632,
      "componentType": 5126,
      "count": 3416,
      "max": [
        0.9944130182266235,
        0.9939829707145691
      ],
      "min": [
        0.00304200011305511,
        0.000623999978415668
      ],
      "type": "VEC2"
    },
    {
      "bufferView": 0,
      "byteOffset": 4104,
      "componentType": 5125,
      "count": 14232,
      "type": "SCALAR"
    },
    {
      "bufferView": 2,
      "byteOffset": 86880,
      "componentType": 5126,
      "count": 81,
      "max": [
        0.12019799649715424,
        -0.2532700002193451,
        2.489861011505127
      ],
      "min": [
        -0.1202009990811348,
        -0.5178189873695374,
        2.2780239582061768
      ],
      "type": "VEC3"
    },
    {
      "bufferView": 2,
      "byteOffset": 87852,
      "componentType": 5126,
      "count": 81,
      "max": [
        0.9992690086364746,
        0.9986627697944641,
        0.9999935626983643
      ],
      "min": [
        -0.9992690086364746,
        -0.9996697306632996,
        -0.1675020158290863
      ],
      "type": "VEC3"
    },
    {
      "bufferView": 1,
      "byteOffset": 28960,
      "componentType": 5126,
      "count": 81,
      "max": [
        0.9980260133743286,
        0.9571840167045593
      ],
      "min": [
        0.007135999854654074,
        0.09633500128984451
      ],
      "type": "VEC2"
    },
    {
      "bufferView": 0,
      "byteOffset": 61032,
      "componentType": 5125,
      "count": 360,
      "type": "SCALAR"
    }
  ],
  "asset": {
    "extras": {
      "author": "Vintar (https://sketchfab.com/vintar)",
      "license": "CC-BY-4.0 (http://creativecommons.org/licenses/by/4.0/)",
      "source": "https://sketchfab.com/3d-models/in-space-male-9aa6ad079e18495ea2952d7b5fc5fb2a",
      "title": "In Space (male)"
    },
    "generator": "Sketchfab-12.68.0",
    "version": "2.0"
  },
  "bufferViews": [
    {
      "buffer": 0,
      "byteLength": 62472,
      "name": "floatBufferViews",
      "target": 34963
    },
    {
      "buffer": 0,
      "byteLength": 29608,
      "byteOffset": 62472,
      "byteStride": 8,
      "name": "floatBufferViews",
      "target": 34962
    },
    {
      "buffer": 0,
      "byteLength": 88824,
      "byteOffset": 92080,
      "byteStride": 12,
      "name": "floatBufferViews",
      "target": 34962
    },
    {
      "buffer": 0,
      "byteLength": 54656,
      "byteOffset": 180904,
      "byteStride": 16,
      "name": "floatBufferViews",
      "target": 34962
    }
  ],
  "buffers": [
    {
      "byteLength": 235560,
      "uri": "scene.bin"
    }
  ],
  "images": [
    {
      "uri": "textures/face_baseColor.jpeg"
    },
    {
      "uri": "textures/hair_man_baseColor.png"
    },
    {
      "uri": "textures/material_flex_baseColor.png"
    },
    {
      "uri": "textures/material_flex_metallicRoughness.png"
    },
    {
      "uri": "textures/material_flex_emissive.png"
    },
    {
      "uri": "textures/material_flex_normal.png"
    }
  ],
  "materials": [
    {
      "doubleSided": true,
      "name": "face",
      "pbrMetallicRoughness": {
        "baseColorTexture": {
          "index": 0
        },
        "metallicFactor": 0.0,
        "roughnessFactor": 0.6
      }
    },
    {
      "doubleSided": true,
      "name": "hair_man",
      "pbrMetallicRoughness": {
        "baseColorTexture": {
          "index": 1
        },
        "metallicFactor": 0.0,
        "roughnessFactor": 0.6
      }
    },
    {
      "alphaMode": "BLEND",
      "doubleSided": true,
      "emissiveFactor": [
        1.0,
        1.0,
        1.0
      ],
      "emissiveTexture": {
        "index": 4
      },
      "name": "material_flex",
      "normalTexture": {
        "index": 5
      },
      "pbrMetallicRoughness": {
        "baseColorTexture": {
          "index": 2
        },
        "metallicRoughnessTexture": {
          "index": 3
        }
      }
    }
  ],
  "meshes": [
    {
      "name": "Object_0",
      "primitives": [
        {
          "attributes": {
            "NORMAL": 1,
            "POSITION": 0,
            "TEXCOORD_0": 2
          },
          "indices": 3,
          "material": 0,
          "mode": 4
        }
      ]
    },
    {
      "name": "Object_1",
      "primitives": [
        {
          "attributes": {
            "NORMAL": 5,
            "POSITION": 4,
            "TANGENT": 6,
            "TEXCOORD_0": 7
          },
          "indices": 8,
          "material": 2,
          "mode": 4
        }
      ]
    },
    {
      "name": "Object_2",
      "primitives": [
        {
          "attributes": {
            "NORMAL": 10,
            "POSITION": 9,
            "TEXCOORD_0": 11
          },
          "indices": 12,
          "material": 1,
          "mode": 4
        }
      ]
    }
  ],
  "nodes": [
    {
      "children": [
        1
      ],
      "matrix": [
        1.0,
        0.0,
        0.0,
        0.0,
        0.0,
        2.220446049250313e-16,
        -1.0,
        0.0,
        0.0,
        1.0,
        2.220446049250313e-16,
        0.0,
        0.0,
        0.0,
        0.0,
        1.0
      ],
      "name": "Sketchfab_model"
    },
    {
      "children": [
        2,
        3,
        4
      ],
      "name": "ceb1e69fe3e74e3f84bcf521eb1d42c3.obj.cleaner.materialmerger.gles"
    },
    {
      "mesh": 0,
      "name": "Object_2"
    },
    {
      "mesh": 1,
      "name": "Object_3"
    },
    {
      "mesh": 2,
      "name": "Object_4"
    }
  ],
  "samplers": [
    {
      "magFilter": 9729,
      "minFilter": 9987,
      "wrapS": 10497,
      "wrapT": 10497
    }
  ],
  "scene": 0,
  "scenes": [
    {
      "name": "Sketchfab_Scene",
      "nodes": [
        0
      ]
    }
  ],
  "textures": [
    {
      "sampler": 0,
      "source": 0
    },
    {
      "sampler": 0,
      "source": 1
    },
    {
      "sampler": 0,
      "source": 2
    },
    {
      "sampler": 0,
      "source": 3
    },
    {
      "sampler": 0,
      "source": 4
    },
    {
      "sampler": 0,
      "source": 5
    }
  ]
}
